<?xml version="1.0" encoding="utf-8"?>
<!-- Generator: Adobe Illustrator 21.1.0, SVG Export Plug-In . SVG Version: 6.00 Build 0)  -->
<svg version="1.1"
	 id="svg2" inkscape:version="0.48.2 r9819" sodipodi:docname="bitcoin-logo-noshadow.svg" xmlns:cc="http://creativecommons.org/ns#" xmlns:dc="http://purl.org/dc/elements/1.1/" xmlns:inkscape="http://www.inkscape.org/namespaces/inkscape" xmlns:rdf="http://www.w3.org/1999/02/22-rdf-syntax-ns#" xmlns:sodipodi="http://sodipodi.sourceforge.net/DTD/sodipodi-0.dtd" xmlns:svg="http://www.w3.org/2000/svg"
	 xmlns="http://www.w3.org/2000/svg" xmlns:xlink="http://www.w3.org/1999/xlink" x="0px" y="0px" viewBox="0 0 1024 1024"
	 style="enable-background:new 0 0 1024 1024;" xml:space="preserve">
<style type="text/css">
	.st0{fill:#FFFFFF;}
	.st1{fill:url(#SVGID_1_);}
	.st2{fill:url(#SVGID_2_);}
	.st3{fill:url(#SVGID_3_);}
</style>
<g>
	<circle class="st0" cx="510.2" cy="510.2" r="353.1"/>
	
		<radialGradient id="SVGID_1_" cx="222.9864" cy="752.801" r="34.4322" gradientTransform="matrix(1.7655 0 0 -1.7655 156.1655 1735.931)" gradientUnits="userSpaceOnUse">
		<stop  offset="0" style="stop-color:#F9AA4B"/>
		<stop  offset="1" style="stop-color:#F7931A"/>
	</radialGradient>
	<path class="st1" d="M509.6,368.3l-24.7,99c28,7,114.3,35.4,128.3-20.6C627.8,388.3,537.6,375.3,509.6,368.3z"/>
	
		<radialGradient id="SVGID_2_" cx="207.4104" cy="664.6751" r="39.8733" gradientTransform="matrix(1.7655 0 0 -1.7655 156.1655 1735.931)" gradientUnits="userSpaceOnUse">
		<stop  offset="0" style="stop-color:#F9AA4B"/>
		<stop  offset="1" style="stop-color:#F7931A"/>
	</radialGradient>
	<path class="st2" d="M472.5,517.3l-27.2,109.2c33.6,8.3,137.3,41.6,152.6-19.9C613.9,542.3,506.1,525.7,472.5,517.3z"/>
	
		<radialGradient id="SVGID_3_" cx="201.5229" cy="693.2446" r="255.9876" gradientTransform="matrix(1.7655 0 0 -1.7655 156.1655 1735.931)" gradientUnits="userSpaceOnUse">
		<stop  offset="0" style="stop-color:#F9AA4B"/>
		<stop  offset="1" style="stop-color:#F7931A"/>
	</radialGradient>
	<path class="st3" d="M621.2,73.5c-242.1-60.4-487.3,87-547.7,329.2c-60.4,242.1,87,487.4,329,547.7
		c242.2,60.4,487.4-87,547.8-329.1C1010.7,379.2,863.4,133.9,621.2,73.5z M711.2,447.6c-6.5,44-30.9,65.3-63.3,72.8
		c44.5,23.2,67.1,58.7,45.6,120.3c-26.8,76.5-90.4,82.9-174.9,66.9L498,789.9l-49.6-12.4l20.3-81.1c-12.9-3.2-26-6.6-39.5-10.3
		l-20.3,81.5l-49.5-12.4l20.5-82.4c-11.6-3-23.3-6.1-35.4-9.1l-64.5-16.1l24.6-56.8c0,0,36.5,9.7,36,9c14,3.5,20.3-5.7,22.7-11.8
		l32.4-130l0.1-0.4l23.1-92.8c0.6-10.5-3-23.8-23.1-28.8c0.8-0.5-36-9-36-9l13.2-53l68.4,17.1l-0.1,0.3c10.3,2.6,20.9,5,31.7,7.4
		l20.3-81.4l49.6,12.4L523,309.7c13.3,3,26.7,6.1,39.7,9.4l19.8-79.3l49.6,12.4l-20.3,81.5C674.4,355.1,720.2,387.5,711.2,447.6z"/>
</g>
</svg>
