<?xml version="1.0" encoding="utf-8"?>
<!-- Generator: Adobe Illustrator 21.1.0, SVG Export Plug-In . SVG Version: 6.00 Build 0)  -->
<svg version="1.1"
	 id="Ebene_1" xmlns:cc="http://creativecommons.org/ns#" xmlns:dc="http://purl.org/dc/elements/1.1/" xmlns:rdf="http://www.w3.org/1999/02/22-rdf-syntax-ns#" xmlns:svg="http://www.w3.org/2000/svg"
	 xmlns="http://www.w3.org/2000/svg" xmlns:xlink="http://www.w3.org/1999/xlink" x="0px" y="0px" viewBox="0 0 609.4 609.4"
	 style="enable-background:new 0 0 609.4 609.4;" xml:space="preserve">
<g>
	<path d="M133.1,130.5c-21.8,21.8-43.8,43.5-65.6,65.4v284.6H478c22.2-22,44.4-44.1,66.5-66.3V130.5H133.1z M321.6,432.6
		c-10.5,4.8-20.9,9.7-31.4,14.5c-8.9-14.7-17.8-29.4-26.7-44.1c-12.1,2-24.5,1.8-36.6,0.5c-14.6-1.7-29.4-6.2-40.6-16
		c-8.6-7.5-14.1-17.9-17.8-28.6c-6.1-18-7.7-37.1-8-56c-0.1-20.4,1.2-41.1,7.3-60.7c4.8-14.7,12.6-29.4,25.9-38
		c15.6-10.3,34.9-12.9,53.3-12.8c17.5,0.2,35.8,3.3,50.3,13.7c10.5,7.4,17.4,18.8,21.9,30.7c7.4,19.4,9.6,40.4,9.8,61
		c0,20.8-0.9,42-7.8,61.8c-4.6,13.5-13.4,25.4-24.9,33.7C304.8,405.7,313.3,419.1,321.6,432.6z M403.4,346.3
		c0.3,6.5,0.1,13.3,3,19.3c2.1,4.6,7.7,5.8,12.3,6c8.6,0,17.2-0.5,25.9-0.7c0.5,8.6,1,17.3,1.5,25.9c-17.1,2.9-35.1,6.3-52.2,0.9
		c-7.2-2.1-13.9-6.9-16.8-14c-5.2-12.1-5.6-25.5-5.9-38.5c0-23.4,0-46.8,0-70.2c-7.6,0-15.3,0-22.9,0c0-9.4,0-18.8,0-28.2
		c7.6,0,15.2,0,22.9,0c0-14.5,0-28.9,0-43.4c10.9,0,21.9,0,32.8,0c0,14.5,0,28.9,0,43.4c14,0,28,0,42,0c-0.2,9.4-0.5,18.8-0.8,28.2
		c-14,0-27.9,0-41.9,0C403.3,298.8,403.2,322.6,403.4,346.3z"/>
	<path d="M283.8,241.6c-3.7-8-10.6-14.3-18.7-17.5c-10.1-4-21.2-4.4-31.8-3c-8.3,1.2-16.5,4.3-22.5,10.3c-6.8,7.1-10.2,16.7-12.5,26
		c-5.6,24.8-4.6,50.6-0.5,75.6c1.4,7.9,3.3,15.7,6.8,22.9c2.9,6,7.9,10.9,13.8,14c10.1,5.3,21.8,6.1,33,5.3
		c10.6-0.8,21.6-4.4,28.7-12.6c7-8.2,9.5-19.2,11.2-29.5c2.4-17.5,2.6-35.2,1.4-52.8C291.5,267.1,289.4,253.7,283.8,241.6z"/>
</g>
</svg>
